# xmcd
#
# Track frame offsets: 
#        150
#        11917
#        37610
#        60602
#        74295
#        108987
#        151720
#        177650
#
# Disc length: 2924 seconds
#
# Revision: 2
# Processed by: cddbd v1.5.2PL0 Copyright (c) Steve Scherf et al.
# Submitted via: ExactAudioCopy v1.3
#
DISCID=5e0b6a08
DTITLE=Schunk, R??gner, Rundfunk-Sinfonie-Orchestra - Jan????ek: Sinfo
DTITLE=nietta - Taras Bulba
DYEAR=1900
DGENRE=
TTITLE0=Sinfonietta (1926) - 1. Allegretto - Allegro - Maestoso
TTITLE1=Sinfonietta - 2. Andante - Allegretto - Maestoso
TTITLE2=Sinfonietta - 3. Moderato - Prestissimo
TTITLE3=Sinfonietta- 4. Allegretto - Adagio - Presto - Andante - Prest
TTITLE3=o
TTITLE4=Sinfonietta- 5. Andante con moto - Maestoso - Allegretto - All
TTITLE4=egro - Maestoso
TTITLE5=Taras Bulba (1918) - 1. Andrejs Tod. Moderato, quasi recitativ
TTITLE5=o
TTITLE6=Taras Bulba - 2. Ostaps Tod. Moderato
TTITLE7=Taras Bulba - 3. Prophezeiung und Tod Taras Bulbas. Con moto
EXTD=
EXTT0=
EXTT1=
EXTT2=
EXTT3=
EXTT4=
EXTT5=
EXTT6=
EXTT7=
PLAYORDER=
